<svg xmlns="http://www.w3.org/2000/svg" xmlns:xlink="http://www.w3.org/1999/xlink" x="0" y="0" version="1.1" viewBox="0 0 32 32" width="64" height="64" style="fill: rgb(255, 255, 255);"><g fill="none" stroke="none" stroke-width="1" stroke-linecap="butt" stroke-linejoin="miter" stroke-miterlimit="10" stroke-dasharray="" stroke-dashoffset="0" font-family="none" font-weight="normal" font-size="12" text-anchor="start" mix-blend-mode="normal"><g><g><path d="M0,32l0,-32l32,0l0,32z" fill="none" font-family="sans-serif"/><path d="M16,32c-8.83656,0 -16,-7.16344 -16,-16l0,0c0,-8.83656 7.16344,-16 16,-16l0,0c8.83656,0 16,7.16344 16,16l0,0c0,8.83656 -7.16344,16 -16,16z M16,30.72c8.12963,0 14.72,-6.59037 14.72,-14.72l0,0c0,-8.12963 -6.59037,-14.72 -14.72,-14.72l0,0c-8.12963,0 -14.72,6.59037 -14.72,14.72l0,0c0,8.12963 6.59037,14.72 14.72,14.72z" fill="#ffffff" font-family="sans-serif"/><g fill="#ffffff" font-family="Bitstream Vera Sans"><path d="M8.8,6.1c-1.48047,0 -2.7,1.21953 -2.7,2.7l0,14.4c0,1.48047 1.21953,2.7 2.7,2.7l14.4,0c1.48047,0 2.7,-1.21953 2.7,-2.7l0,-14.4c0,-1.48047 -1.21953,-2.7 -2.7,-2.7z M20.5,8.8l2.7,0l0,2.7l-2.7,0z M16,12.4c1.99889,0 3.6,1.60111 3.6,3.6c0,1.99889 -1.60111,3.6 -3.6,3.6c-1.99889,0 -3.6,-1.60111 -3.6,-3.6c0,-1.99889 1.60111,-3.6 3.6,-3.6z M7.9,14.2l3.00938,0c-0.19934,0.56197 -0.30938,1.17161 -0.30938,1.8c0,2.97168 2.42832,5.4 5.4,5.4c2.97168,0 5.4,-2.42832 5.4,-5.4c0,-0.62839 -0.11004,-1.23803 -0.30938,-1.8l3.00938,0l0,9c0,0.50853 -0.39147,0.9 -0.9,0.9l-14.4,0c-0.50853,0 -0.9,-0.39147 -0.9,-0.9z"/></g></g></g></g></svg>