<svg xmlns="http://www.w3.org/2000/svg" xmlns:xlink="http://www.w3.org/1999/xlink" x="0" y="0" version="1.1" viewBox="0 0 50 50" width="50" height="50" style="fill: rgb(255, 255, 255);"><g fill="none" stroke="none" stroke-width="1" stroke-linecap="butt" stroke-linejoin="miter" stroke-miterlimit="10" stroke-dasharray="" stroke-dashoffset="0" font-family="none" font-weight="normal" font-size="12" text-anchor="start" mix-blend-mode="normal"><g><g><path d="M0,50l0,-50l50,0l0,50z" fill="none" font-family="sans-serif"/><path d="M25,50c-13.80712,0 -25,-11.19288 -25,-25l0,0c0,-13.80712 11.19288,-25 25,-25l0,0c13.80712,0 25,11.19288 25,25l0,0c0,13.80712 -11.19288,25 -25,25z M25,48c12.70255,0 23,-10.29745 23,-23l0,0c0,-12.70255 -10.29745,-23 -23,-23l0,0c-12.70255,0 -23,10.29745 -23,23l0,0c0,12.70255 10.29745,23 23,23z" fill="#ffffff" font-family="sans-serif"/><g fill="#ffffff" font-family="Bitstream Vera Sans"><path d="M31.97184,10.47132c-4.52207,0 -8.19959,3.67889 -8.19959,8.19959c0,0.27238 0.06845,0.53696 0.09452,0.80342c-5.5905,-0.53391 -10.53531,-3.22922 -13.89441,-7.34891c-0.15579,-0.19814 -0.40006,-0.30564 -0.6514,-0.28667c-0.25134,0.01897 -0.4767,0.16191 -0.60099,0.38119c-0.70611,1.21403 -1.11061,2.61225 -1.11061,4.11161c0,1.81704 0.65043,3.48084 1.6541,4.84414c-0.19434,-0.08518 -0.40631,-0.1338 -0.59075,-0.2363c-0.23339,-0.12381 -0.51447,-0.11685 -0.74145,0.01837c-0.22697,0.13522 -0.36692,0.37908 -0.36916,0.64327l0,0.09452c0,2.78463 1.44121,5.20315 3.56812,6.68727c-0.02311,-0.00423 -0.04783,0.00446 -0.07089,0c-0.25921,-0.0446 -0.52297,0.04868 -0.6965,0.24632c-0.17354,0.19764 -0.23192,0.47125 -0.15417,0.72251c0.84425,2.62543 2.99964,4.63218 5.67119,5.364c-2.12649,1.26434 -4.59423,2.00854 -7.25439,2.00854c-0.57483,0 -1.12868,-0.02812 -1.67773,-0.09452c-0.35425,-0.04771 -0.69353,0.15913 -0.81339,0.49588c-0.11986,0.33676 0.01243,0.71144 0.31716,0.89828c3.41059,2.18839 7.46222,3.4736 11.81497,3.4736c7.05734,0 12.59055,-2.94705 16.30466,-7.15987c3.71411,-4.21282 5.64756,-9.68194 5.64756,-14.79234c0,-0.21692 -0.01736,-0.4253 -0.02363,-0.63801c1.38629,-1.05905 2.62217,-2.30537 3.59175,-3.75716c0.19151,-0.28149 0.17132,-0.65625 -0.04934,-0.91552c-0.22066,-0.25927 -0.58737,-0.33913 -0.89585,-0.19509c-0.38998,0.17293 -0.84563,0.19332 -1.25239,0.33082c0.53614,-0.71729 0.99693,-1.49081 1.27602,-2.36299c0.09366,-0.29953 -0.0074,-0.62578 -0.25399,-0.8199c-0.24659,-0.19412 -0.58745,-0.21577 -0.85661,-0.05441c-1.29076,0.76442 -2.7197,1.30313 -4.22976,1.63047c-1.46602,-1.36925 -3.39474,-2.2921 -5.55304,-2.2921z M31.97184,11.98364c1.9289,0 3.67208,0.82519 4.8914,2.12669c0.1831,0.18958 0.45168,0.27015 0.7089,0.21267c0.9865,-0.19404 1.92366,-0.48169 2.83559,-0.85068c-0.52647,0.71014 -1.17618,1.31573 -1.93766,1.77225c-0.34472,0.16808 -0.50904,0.56758 -0.38235,0.92956c0.12669,0.36198 0.50428,0.57181 0.87858,0.48824c0.75661,-0.09145 1.43069,-0.39765 2.15032,-0.59075c-0.6464,0.70036 -1.35505,1.33303 -2.12669,1.8904c-0.20903,0.15332 -0.32496,0.40302 -0.30719,0.66164c0.01323,0.30802 0.02363,0.6101 0.02363,0.92157c0,4.72646 -1.81332,9.85603 -5.26948,13.77626c-3.45616,3.92023 -8.53072,6.66364 -15.17042,6.66364c-3.01642,0 -5.86219,-0.66858 -8.43589,-1.84314c3.19134,-0.24373 6.13101,-1.37436 8.50678,-3.2373c0.24784,-0.19784 0.34592,-0.52931 0.24563,-0.83016c-0.10028,-0.30085 -0.37762,-0.50718 -0.6946,-0.51675c-2.4927,-0.0457 -4.58032,-1.49335 -5.69482,-3.54449c0.04026,0.0006 0.07772,0 0.11815,0c0.74583,0 1.48473,-0.09369 2.17395,-0.28356c0.33228,-0.096 0.55709,-0.40521 0.54594,-0.7509c-0.01115,-0.3457 -0.25542,-0.63977 -0.5932,-0.71416c-2.69093,-0.54333 -4.70801,-2.73419 -5.17496,-5.45852c0.7609,0.26377 1.54308,0.46961 2.38662,0.49623c0.34441,0.02051 0.65903,-0.19468 0.76479,-0.52309c0.10576,-0.32841 -0.02417,-0.68676 -0.31582,-0.87108c-1.79707,-1.20122 -2.97737,-3.24967 -2.97737,-5.57667c0,-0.86308 0.22376,-1.65414 0.51986,-2.41025c3.77976,4.15091 9.07285,6.90612 15.05227,7.20713c0.23685,0.01321 0.46618,-0.08549 0.61941,-0.26658c0.15323,-0.18109 0.21261,-0.42359 0.16038,-0.65499c-0.11455,-0.48937 -0.18904,-1.01049 -0.18904,-1.53595c0,-3.70327 2.98234,-6.68727 6.68727,-6.68727z"/></g></g></g></g></svg>