<svg xmlns="http://www.w3.org/2000/svg" xmlns:xlink="http://www.w3.org/1999/xlink" x="0" y="0" version="1.1" viewBox="0 0 24 24" width="48" height="48" style="fill: rgb(255, 255, 255);"><g fill="none" stroke="none" stroke-width="1" stroke-linecap="butt" stroke-linejoin="miter" stroke-miterlimit="10" stroke-dasharray="" stroke-dashoffset="0" font-family="sans-serif" font-weight="normal" font-size="12" text-anchor="start" mix-blend-mode="normal"><g><g><path d="M0,24l0,-24l24,0l0,24z" fill="none"/><path d="M12,24c-6.62742,0 -12,-5.37258 -12,-12l0,0c0,-6.62742 5.37258,-12 12,-12l0,0c6.62742,0 12,5.37258 12,12l0,0c0,6.62742 -5.37258,12 -12,12z M12,23.04c6.09722,0 11.04,-4.94278 11.04,-11.04l0,0c0,-6.09722 -4.94278,-11.04 -11.04,-11.04l0,0c-6.09722,0 -11.04,4.94278 -11.04,11.04l0,0c0,6.09722 4.94278,11.04 11.04,11.04z" fill="#ffffff"/><g fill="#ffffff"><path d="M5,5c-0.9625,0 -1.75,0.7875 -1.75,1.75l0,10.5c0,0.9625 0.7875,1.75 1.75,1.75l14,0c0.9625,0 1.75,-0.7875 1.75,-1.75l0,-10.5c0,-0.9625 -0.7875,-1.75 -1.75,-1.75z M5,6.75l14,0l0,10.5l-14,0z M5.875,7.26953l0,1.75l6.125,3.85547l6.125,-3.85547l0,-1.75l-6.125,3.85547z"/></g></g></g></g></svg>