<svg xmlns="http://www.w3.org/2000/svg" xmlns:xlink="http://www.w3.org/1999/xlink" x="0" y="0" version="1.1" viewBox="0 0 32 32" width="64" height="64" style="fill: rgb(255, 255, 255);"><g fill="none" stroke="none" stroke-width="1" stroke-linecap="butt" stroke-linejoin="miter" stroke-miterlimit="10" stroke-dasharray="" stroke-dashoffset="0" font-family="none" font-weight="normal" font-size="12" text-anchor="start" mix-blend-mode="normal"><g><g><path d="M0,32l0,-32l32,0l0,32z" fill="none" font-family="sans-serif"/><path d="M16,32c-8.83656,0 -16,-7.16344 -16,-16l0,0c0,-8.83656 7.16344,-16 16,-16l0,0c8.83656,0 16,7.16344 16,16l0,0c0,8.83656 -7.16344,16 -16,16z M16,30.72c8.12963,0 14.72,-6.59037 14.72,-14.72l0,0c0,-8.12963 -6.59037,-14.72 -14.72,-14.72l0,0c-8.12963,0 -14.72,6.59037 -14.72,14.72l0,0c0,8.12963 6.59037,14.72 14.72,14.72z" fill="#ffffff" font-family="sans-serif"/><g fill="#ffffff" font-family="Bitstream Vera Sans"><path d="M7.9,6.1c-0.98376,0 -1.8,0.81624 -1.8,1.8l0,16.2c0,0.98376 0.81624,1.8 1.8,1.8l16.2,0c0.98376,0 1.8,-0.81624 1.8,-1.8l0,-16.2c0,-0.98376 -0.81624,-1.8 -1.8,-1.8z M7.9,7.9l16.2,0l0,16.2l-4.66875,0l0,-6.075l2.33438,0l0.3375,-2.7l-2.67187,0l0,-1.74375c0,-0.7866 0.19418,-1.32188 1.32188,-1.32188l1.4625,0l0,-2.44688c-0.2493,-0.0333 -1.11578,-0.08437 -2.10938,-0.08437c-2.0736,0 -3.4875,1.24718 -3.4875,3.57187l0,2.025l-2.3625,0l0,2.7l2.3625,0l0,6.075l-8.71875,0z"/></g></g></g></g></svg>