<svg xmlns="http://www.w3.org/2000/svg" xmlns:xlink="http://www.w3.org/1999/xlink" x="0" y="0" version="1.1" viewBox="0 0 32 32" width="64" height="64" style="fill: rgb(255, 255, 255);"><g fill="none" stroke="none" stroke-width="1" stroke-linecap="butt" stroke-linejoin="miter" stroke-miterlimit="10" stroke-dasharray="" stroke-dashoffset="0" font-family="none" font-weight="normal" font-size="12" text-anchor="start" mix-blend-mode="normal"><g><g><path d="M0,32l0,-32l32,0l0,32z" fill="none" font-family="sans-serif"/><path d="M16,32c-8.83656,0 -16,-7.16344 -16,-16l0,0c0,-8.83656 7.16344,-16 16,-16l0,0c8.83656,0 16,7.16344 16,16l0,0c0,8.83656 -7.16344,16 -16,16z M16,30.72c8.12963,0 14.72,-6.59037 14.72,-14.72l0,0c0,-8.12963 -6.59037,-14.72 -14.72,-14.72l0,0c-8.12963,0 -14.72,6.59037 -14.72,14.72l0,0c0,8.12963 6.59037,14.72 14.72,14.72z" fill="#ffffff" font-family="sans-serif"/><g fill="#ffffff" font-family="Bitstream Vera Sans"><path d="M9.76,7.42c-1.28308,0 -2.34,1.05692 -2.34,2.34l0,12.48c0,1.28308 1.05692,2.34 2.34,2.34l12.48,0c1.28308,0 2.34,-1.05692 2.34,-2.34l0,-12.48c0,-1.28308 -1.05692,-2.34 -2.34,-2.34z M19.9,9.76l2.34,0l0,2.34l-2.34,0z M16,12.88c1.73237,0 3.12,1.38763 3.12,3.12c0,1.73237 -1.38763,3.12 -3.12,3.12c-1.73237,0 -3.12,-1.38763 -3.12,-3.12c0,-1.73237 1.38763,-3.12 3.12,-3.12z M8.98,14.44l2.60813,0c-0.17276,0.48704 -0.26813,1.0154 -0.26813,1.56c0,2.57545 2.10455,4.68 4.68,4.68c2.57545,0 4.68,-2.10455 4.68,-4.68c0,-0.5446 -0.09536,-1.07296 -0.26813,-1.56l2.60813,0l0,7.8c0,0.44072 -0.33928,0.78 -0.78,0.78l-12.48,0c-0.44072,0 -0.78,-0.33928 -0.78,-0.78z"/></g></g></g></g></svg>